<svg width="150" height="46" viewBox="0 0 150 46" fill="none" xmlns="http://www.w3.org/2000/svg">
<path d="M20.0492 27.7976C20.0492 30.0067 19.4467 31.7026 18.2417 32.8852C17.0591 34.0679 15.3967 34.6592 13.2545 34.6592H10.0413C7.40826 34.6592 5.53388 34.2017 4.41818 33.2869C3.32479 32.372 2.7781 30.7877 2.7781 28.534V10.8278H12.8529C15.1289 10.8278 16.836 11.3968 17.974 12.5348C19.1343 13.6728 19.7145 15.2794 19.7145 17.3546C19.7145 18.5596 19.4021 19.586 18.7773 20.434C18.1748 21.2819 17.5054 21.8844 16.769 22.2414C18.9558 23.2679 20.0492 25.1199 20.0492 27.7976ZM12.4847 20.1327C14.2029 20.1327 15.062 19.2736 15.062 17.5555C15.062 15.8373 14.2029 14.9782 12.4847 14.9782H7.43058V20.1327H12.4847ZM15.3967 27.5633C15.3967 26.4922 15.207 25.6889 14.8277 25.1534C14.4483 24.5955 13.7678 24.3166 12.786 24.3166H7.43058V28.0654C7.43058 28.9803 7.65372 29.6162 8.1 29.9732C8.5686 30.3303 9.32727 30.5088 10.376 30.5088H12.786C14.5264 30.5088 15.3967 29.5269 15.3967 27.5633ZM66.2215 34.6592H61.3682L60.0293 30.5422H52.0297L50.7244 34.6592H45.8711L53.5025 12.836C53.8372 12.0774 54.2054 11.553 54.607 11.2629C55.031 10.9728 55.5442 10.8278 56.1467 10.8278C56.7492 10.8278 57.2289 10.9617 57.5859 11.2294C57.9653 11.4972 58.3 12.0327 58.5901 12.836L66.2215 34.6592ZM58.9583 26.6261L56.1467 17.1873L53.2012 26.6261H58.9583ZM88.0679 10.8278V32.2493C88.0679 32.9856 87.8447 33.6216 87.3985 34.1571C86.9522 34.6703 86.4278 34.9269 85.8253 34.9269C84.2857 34.9269 83.0249 34.0344 82.0431 32.2493L73.8092 19.3629V34.6592H69.1567V10.8278H73.6419L83.4154 26.4253V10.8278H88.0679ZM91.4223 23.4464V20.5009C91.4223 17.3993 92.2368 14.9782 93.8657 13.2377C95.4946 11.4972 97.7483 10.6269 100.627 10.6269C103.505 10.6269 105.815 11.4972 107.555 13.2377C108.783 14.465 109.396 16.3059 109.396 18.7604H105.045C105.045 16.105 103.628 14.7774 100.794 14.7774C99.9463 14.7774 99.2211 14.9447 98.6186 15.2794C98.0384 15.5918 97.6033 15.96 97.3132 16.384C97.0231 16.8079 96.8 17.4327 96.6438 18.2584C96.4876 19.084 96.3983 19.7757 96.376 20.3336C96.3537 20.8914 96.3426 21.6389 96.3426 22.5761C96.3426 23.5133 96.3426 24.1493 96.3426 24.484C96.3649 24.7964 96.3983 25.3207 96.443 26.0571C96.5099 26.7712 96.5992 27.2844 96.7107 27.5968C96.8446 27.9092 97.0231 28.3108 97.2463 28.8017C97.4917 29.2927 97.793 29.6385 98.15 29.8393C99.0649 30.4195 100.102 30.7096 101.263 30.7096C103.204 30.7096 104.576 29.884 105.38 28.2327V26.6261H102.501V22.7435H109.363V29.9398C108.671 31.5687 107.578 32.796 106.083 33.6216C104.588 34.4472 102.892 34.86 100.995 34.86C97.6256 34.86 95.1822 33.9228 93.6649 32.0484C92.1698 30.1517 91.4223 27.2844 91.4223 23.4464ZM118.458 30.1741C118.815 30.5088 118.993 31.234 118.993 32.3497C118.993 33.4654 118.815 34.2017 118.458 34.5588C118.123 34.9158 117.398 35.0943 116.282 35.0943C115.166 35.0943 114.43 34.9158 114.073 34.5588C113.716 34.2017 113.537 33.4654 113.537 32.3497C113.537 31.234 113.716 30.5088 114.073 30.1741C114.43 29.817 115.166 29.6385 116.282 29.6385C117.398 29.6385 118.123 29.817 118.458 30.1741ZM125.952 8.2505C127.001 8.2505 127.682 8.41786 127.994 8.75257C128.307 9.06496 128.463 9.74554 128.463 10.7943C128.463 11.8207 128.295 12.5013 127.961 12.836C127.648 13.1484 126.968 13.3046 125.919 13.3046C124.893 13.3046 124.212 13.1373 123.877 12.8026C123.565 12.4679 123.409 11.7873 123.409 10.7608C123.409 9.73439 123.565 9.06496 123.877 8.75257C124.212 8.41786 124.904 8.2505 125.952 8.2505ZM128.095 34.6592H123.743V16.2501H128.095V34.6592ZM147.789 34.6592H143.437V22.4422C143.437 21.3488 143.214 20.6013 142.768 20.1997C142.322 19.798 141.697 19.5972 140.894 19.5972L136.977 21.2373V34.6592H132.626V15.5472H135.873L136.877 17.8232L142.232 15.3464C143.727 15.3464 145.022 15.9042 146.115 17.0199C147.231 18.1133 147.789 19.7199 147.789 21.8398V34.6592Z" fill="#016A70"/>
<mask id="mask0_0_2999" style="mask-type:alpha" maskUnits="userSpaceOnUse" x="10" y="39" width="133" height="7">
<rect width="132.397" height="5.95041" transform="matrix(-1 0 0 1 142.438 39.3369)" fill="#C4C4C4"/>
</mask>
<g mask="url(#mask0_0_2999)">
<path d="M120.742 38.5987L120.347 38.5296L121.116 38.4304L120.747 38.3578C120.377 38.3585 119.898 38.4672 119.638 38.4094C119.606 38.3535 120.008 38.3355 120.111 38.2909C120.202 38.2452 120.276 38.1998 120.333 38.1553C120.131 38.1558 119.91 38.1665 119.682 38.187C119.375 38.2204 119.073 38.2366 118.811 38.2339C118.275 38.2429 117.758 38.2339 117.175 38.2359L117.369 38.1012L116.618 38.1327C116.538 38.143 116.443 38.1265 116.365 38.1392C115.714 38.2466 115.439 38.188 115.127 38.1395C115.062 38.127 114.985 38.1176 114.897 38.1116C114.029 38.1374 113.246 38.2879 112.464 38.3652C112.317 38.3849 112.176 38.4102 112.051 38.4394C111.779 38.496 111.476 38.5422 111.171 38.5738C110.865 38.6054 110.567 38.6214 110.303 38.6203C109.718 38.619 109.058 38.6565 108.385 38.729C108.185 38.7529 107.985 38.7687 107.798 38.7753C107.61 38.7819 107.439 38.7793 107.296 38.7675L106.842 38.8444C106.645 38.8132 106.395 38.7961 106.107 38.7941C105.82 38.7921 105.501 38.8052 105.169 38.8328C104.816 38.8626 104.457 38.8828 104.091 38.9143C103.334 38.9747 102.597 39.0116 101.903 39.0239C100.87 39.0604 99.8612 39.0887 98.8191 39.1342C98.1672 39.1562 97.5321 39.1682 96.9174 39.1704C96.1812 39.179 95.3848 39.2206 94.5666 39.2932C94.6054 39.3613 94.9642 39.3412 95.205 39.3389C95.9817 39.3276 96.7766 39.2982 97.5757 39.2762C97.9357 39.2676 98.2858 39.2643 98.6239 39.2664C99.1892 39.2636 99.7851 39.2454 100.401 39.2123C101.375 39.1758 102.318 39.1582 103.22 39.1598C103.29 39.1625 103.355 39.1673 103.413 39.1741C103.425 39.18 103.427 39.1874 103.42 39.1956C103.412 39.2038 103.395 39.2126 103.37 39.2211C103.345 39.2296 103.312 39.2375 103.276 39.2441C103.239 39.2507 103.2 39.2557 103.162 39.2587C102.804 39.3048 102.419 39.3544 102.081 39.3614C102.068 39.3619 102.054 39.3631 102.04 39.3649C102.027 39.3667 102.013 39.369 102.002 39.3716C101.245 39.4691 100.624 39.4526 100.035 39.4685C99.0568 39.5113 98.1141 39.5314 97.2209 39.5282C97.0859 39.5284 96.9401 39.534 96.7889 39.5447C95.8533 39.5882 94.9785 39.5931 94.2055 39.5591C93.8873 39.5505 93.5915 39.5312 93.2496 39.5309C93.039 39.5295 92.8556 39.5172 92.7106 39.4946C92.5656 39.472 92.4619 39.4396 92.4057 39.3994C92.2615 39.4205 92.115 39.4394 91.968 39.4558C91.8802 39.4651 91.796 39.4676 91.7324 39.4627C91.6689 39.4578 91.6306 39.4459 91.6255 39.4294C91.5991 39.3832 91.7995 39.36 91.9733 39.3402C91.8685 39.3303 91.7504 39.3244 91.6217 39.3228C90.8973 39.3123 90.1203 39.3247 89.3076 39.36C88.6766 39.4021 88.1729 39.3678 87.509 39.4273C87.4294 39.4375 87.3639 39.4225 87.2906 39.4188C87.0996 39.3998 86.8616 39.3955 86.5974 39.4064C86.3331 39.4172 86.0505 39.4429 85.774 39.4811C85.4297 39.3767 84.686 39.496 84.1368 39.5067C83.9677 39.5599 84.1617 39.5505 84.17 39.5651C84.1783 39.5797 84.1701 39.5651 84.2364 39.5566C84.7848 39.6318 85.536 39.6482 86.3848 39.6035C86.5417 39.6037 86.6913 39.6071 86.832 39.6138C87.0452 39.6231 87.2855 39.6222 87.5424 39.611C87.8232 39.6027 88.0811 39.6067 88.3037 39.6225C88.4318 39.6223 88.5401 39.6302 88.6186 39.6457C88.6971 39.6611 88.7432 39.6836 88.7527 39.7109C88.6672 39.732 88.5724 39.7513 88.472 39.768C87.9476 39.834 87.4248 39.8614 87.0062 39.8446C86.2778 39.8158 85.411 39.8439 84.6365 39.8341C84.1129 39.8301 83.5557 39.8415 82.9755 39.868C82.9755 39.868 82.9908 39.8947 82.9921 39.8972C82.9235 39.9088 82.8514 39.9181 82.7799 39.9245C82.7799 39.9245 82.7799 39.9245 82.773 39.9124C82.8047 39.9007 82.8479 39.8897 82.8973 39.8807L83.0698 39.8584C82.9526 39.8527 82.843 39.8354 82.7209 39.846C82.4635 39.8655 82.2175 39.8738 81.9977 39.8702C81.7779 39.8667 81.5888 39.8514 81.4419 39.8254C81.1814 39.792 80.8575 39.7768 80.4909 39.7808C80.2101 39.7772 79.9394 39.7693 79.6802 39.7574C79.6802 39.7574 79.6635 39.7282 79.5408 39.7126C79.657 39.6935 79.7783 39.6779 79.8989 39.6665C80.4238 39.638 80.9501 39.6119 81.4659 39.5925C81.6558 39.5904 81.8344 39.5936 81.9982 39.6022C82.4521 39.6122 82.9619 39.598 83.4981 39.5603C83.4981 39.5603 83.6042 39.5467 83.6572 39.5398C83.5068 39.4757 82.9881 39.5399 82.7782 39.4964C82.6505 39.4972 82.4257 39.5027 82.4335 39.4913C82.451 39.476 82.453 39.4618 82.4396 39.4497C82.4261 39.4376 82.3974 39.428 82.3556 39.4214C82.3137 39.4148 82.2597 39.4114 82.1975 39.4116C82.1352 39.4118 82.0662 39.4155 81.9955 39.4223C81.405 39.4596 80.8489 39.47 80.3611 39.4528C80.1762 39.4531 79.9689 39.4642 79.7853 39.467C79.673 39.4703 79.5704 39.4684 79.4832 39.4615C79.0397 39.4105 78.443 39.4067 77.7826 39.4509C77.4635 39.4668 77.1653 39.4689 76.9034 39.4571C76.7171 39.455 76.6381 39.4913 76.5054 39.5084L75.9421 39.5445L76.6655 39.5897C76.5109 39.6932 76.3879 39.7273 76.1353 39.7337C75.7667 39.7435 75.4079 39.7479 75.0606 39.7469C74.8038 39.7461 74.5918 39.7238 74.2441 39.7634C74.1827 39.7698 74.1235 39.7719 74.0766 39.7693C73.6695 39.7341 73.1791 39.7261 72.6392 39.7456C72.3596 39.6798 71.8834 39.7438 71.4429 39.7954C71.3007 39.7458 71.5583 39.723 71.712 39.6928C71.3435 39.6959 70.9723 39.6941 70.5919 39.7013C70.4775 39.6987 70.3468 39.7032 70.2099 39.7145C70.073 39.7258 69.9338 39.7436 69.8031 39.7665C69.7394 39.7812 69.6626 39.7924 69.5887 39.7975C69.5147 39.8027 69.4493 39.8015 69.4059 39.7941C69.2086 39.7726 68.8924 39.7924 68.7292 39.756C68.6713 39.7476 68.5883 39.7465 68.4953 39.7527C68.4024 39.759 68.3054 39.7722 68.2217 39.7901C68.3133 39.7957 68.3948 39.8045 68.4645 39.8163C68.7141 39.8546 68.6225 39.9186 68.3053 40.0118C67.8182 40.0066 67.3206 40.0081 66.8692 39.9905C66.6176 39.9748 66.3093 39.9797 65.9789 40.0048C65.6486 40.0298 65.3093 40.074 64.9992 40.1324C64.887 40.1548 64.7591 40.1703 64.6409 40.1759C64.5227 40.1814 64.4228 40.1766 64.3612 40.1623C64.3229 40.1459 64.311 40.125 64.3266 40.1015L64.645 40.0605C64.645 40.0605 64.6325 40.0386 64.6297 40.0337L64.172 40.03C63.9299 40.0299 63.6772 40.0364 63.4483 40.0345C63.1121 40.0223 62.7283 40.0291 62.3205 40.0545C61.9445 40.0806 61.5748 40.1003 61.215 40.1135C60.8667 40.127 60.6143 40.0838 60.2828 40.0769C60.0322 40.0717 59.7565 40.0773 59.4663 40.0934C58.965 40.1219 58.5048 40.122 58.1279 40.0935C57.6883 40.2468 57.4747 40.2718 57.0666 40.2303L56.8748 40.2185L56.8223 40.2514L56.6758 40.2441C56.4016 40.2377 56.1273 40.2313 55.8412 40.229C55.4434 40.2432 55.0139 40.2815 54.5945 40.3401C54.5149 40.3503 54.4066 40.3852 54.3367 40.4125C54.2668 40.4398 54.1143 40.5221 54.0024 40.5757C54.1244 40.6148 54.2596 40.6522 54.3564 40.6972C54.3661 40.7049 54.3652 40.714 54.3536 40.7239C54.3421 40.7339 54.3203 40.7442 54.29 40.7542C54.2597 40.7642 54.2217 40.7736 54.1791 40.7815C54.1365 40.7895 54.0905 40.7958 54.0448 40.8C53.9556 40.8091 53.8676 40.8152 53.7844 40.8179C53.3745 40.8227 52.982 40.8192 52.6107 40.8073C52.4751 40.7906 52.2895 40.789 52.0833 40.8028C51.877 40.8166 51.662 40.845 51.4722 40.8835C50.9864 40.8604 50.4219 40.8672 49.8176 40.9036C49.1785 40.8815 48.4065 40.9261 47.8094 40.8777C47.8232 40.9021 47.7617 40.944 47.6757 40.9681C47.5398 41.0048 47.3859 41.0387 47.2203 41.0686L45.9577 41.1269C45.9105 41.1568 45.8515 41.1872 45.7815 41.2175C45.7335 41.2414 45.65 41.2649 45.5485 41.2828C45.4471 41.3008 45.3358 41.3118 45.2382 41.3136C44.9869 41.3225 44.7763 41.3027 44.4767 41.3517C44.938 41.3981 45.5603 41.3919 46.2325 41.3343C46.8641 41.2905 47.4716 41.2686 48.0325 41.2695C48.2174 41.2691 48.4609 41.2717 48.5187 41.2982C48.6468 41.3731 48.9818 41.3613 49.3727 41.3474C49.6797 41.3323 49.9601 41.334 50.1909 41.3524C50.4217 41.3708 50.5963 41.4053 50.7002 41.4532C50.7265 41.4994 50.6635 41.5388 50.3941 41.5657L49.2736 41.6736C49.1084 41.6597 48.9518 41.6433 48.8042 41.6244C48.5555 41.5993 48.2485 41.5924 47.907 41.6043C47.5655 41.6161 47.1988 41.6464 46.8353 41.6928C46.6496 41.7167 46.4639 41.7407 46.3292 41.7293C46.2111 41.7162 46.1023 41.7006 46.0036 41.6825C45.9836 41.6703 45.9757 41.6564 45.98 41.6411C45.9085 41.6482 45.837 41.6574 45.7678 41.6685C45.2145 41.7972 44.7861 41.795 44.3968 41.7616C44.2915 41.7517 44.2113 41.7359 44.1046 41.7235C43.9979 41.7112 43.9603 41.6951 43.8633 41.6998C43.0899 41.742 42.8672 41.601 42.2154 41.6066C42.1836 41.6011 42.1639 41.5929 42.1581 41.5827C42.1523 41.5725 42.1605 41.5606 42.1821 41.5482C42.2282 41.5371 42.2814 41.5274 42.3371 41.5203C42.3927 41.5131 42.4489 41.5086 42.5005 41.5072C42.8005 41.4891 43.0654 41.4947 43.2499 41.5229C43.3807 41.5345 43.519 41.5437 43.6643 41.5505L44.3169 41.3462C43.6846 41.3649 43.0867 41.3648 42.5368 41.3458C42.4168 41.3352 42.2137 41.3535 42.0448 41.357L40.8026 41.3761C40.5472 41.3777 40.3296 41.3457 39.9734 41.4203C39.9734 41.4203 39.7382 41.4324 39.6754 41.4222C39.6126 41.412 39.3345 41.3486 39.1686 41.3073C38.9759 41.3191 38.7092 41.3508 38.5892 41.3402C38.3796 41.314 38.1982 41.2805 38.0481 41.2402L37.2977 41.2977C37.2986 41.3488 37.326 41.3969 37.3795 41.4413C37.438 41.484 37.436 41.5354 37.3737 41.591C37.3113 41.6467 37.1904 41.7052 37.0209 41.7617L36.2799 42.0609C36.159 42.081 36.0301 42.0945 35.9108 42.0996C35.7914 42.1047 35.6873 42.1012 35.6127 42.0895C35.2939 42.0548 34.9368 42.0277 34.618 41.9931C34.2068 42.0461 34.3125 42.1317 34.0135 42.2068L33.0451 42.3316C32.8974 42.4473 32.7469 42.5581 33.1961 42.5969C33.2854 42.6036 33.2252 42.648 33.3068 42.6662C32.9575 42.753 32.5736 42.779 32.2195 42.8324C32.08 42.8709 31.9633 42.9116 31.875 42.9526C31.7781 43.0143 31.5817 43.0773 31.3282 43.1281C31.0747 43.1788 30.7845 43.2132 30.5201 43.2238C30.0767 43.2563 29.6226 43.3051 29.1783 43.3681C29.0265 43.39 28.8706 43.4059 28.7209 43.4148C28.5712 43.4238 28.4314 43.4255 28.3107 43.4198C27.8808 43.4099 27.5169 43.3759 27.2428 43.3198C26.9717 43.2723 26.6062 43.2494 26.1796 43.2532C25.4499 43.3472 25.3028 43.4889 24.8613 43.6138L25.6239 43.6277C25.6516 43.6764 25.6011 43.7378 25.9138 43.7366C26.2264 43.7355 26.0678 43.7821 25.9664 43.8291C25.9307 43.8527 25.861 43.8771 25.7691 43.898C25.6772 43.9189 25.5687 43.935 25.4621 43.9437L24.8129 44.0039C24.5826 44.0268 24.3598 44.0366 24.1689 44.0322C23.978 44.0278 23.8264 44.0093 23.7307 43.9789C23.6208 43.95 23.4691 43.9304 23.285 43.9214C23.0503 43.8978 22.8573 43.8627 22.7132 43.8175L21.7967 43.8834C21.7577 43.838 21.6317 43.8061 21.4402 43.7932C21.2486 43.7803 21.0032 43.7871 20.7454 43.8126L20.1276 43.8531C19.4408 43.8972 19.2901 43.8827 19.089 43.7545L19.9127 43.5256C19.7929 43.4653 19.6773 43.4123 19.5617 43.3593C19.7669 43.2839 20.0407 43.2125 20.3552 43.1525C20.6488 43.0881 20.9506 43.0256 21.2597 42.9654C21.5949 42.9039 21.9489 42.8505 22.3651 42.7812C22.4378 42.7587 22.5433 42.719 22.6782 42.6807C22.8131 42.6435 22.9539 42.6071 23.1001 42.5715C23.0724 42.5228 23.0474 42.479 23.1007 42.4226C22.8444 42.4406 22.5796 42.4721 22.3302 42.5143C22.0807 42.5565 21.8545 42.608 21.672 42.6642C21.6413 42.6742 21.6037 42.6835 21.5616 42.6916C21.5196 42.6998 21.4741 42.7065 21.4282 42.7113C20.978 42.7458 20.7628 42.8179 20.5426 42.9064C20.3943 42.9516 20.2032 42.9918 19.9957 43.0213C19.5978 43.0726 19.2081 43.1385 18.8275 43.1954C18.7111 43.2143 18.59 43.2299 18.4694 43.2415C18.0716 43.2784 17.6712 43.33 17.2887 43.3937C17.1638 43.4099 17.044 43.4313 16.9393 43.4562C16.8345 43.481 16.7479 43.5086 16.6866 43.5366C16.7813 43.5673 16.8324 43.606 16.8368 43.6504C16.8535 43.6796 16.5741 43.7392 16.442 43.7823C16.3099 43.8254 16.5689 43.8051 16.6568 43.8095C17.0176 43.8178 17.0845 43.8353 16.8685 43.931C16.7963 43.9611 16.7484 43.9913 16.7278 44.0195C16.7071 44.0478 16.7141 44.0736 16.7484 44.0954C16.7997 44.1854 16.9557 44.2593 17.0628 44.3474C16.8965 44.4054 16.6185 44.4673 16.5882 44.5391C16.5736 44.555 16.5429 44.5719 16.4982 44.5885C16.4534 44.6051 16.3959 44.6211 16.3296 44.6351C16.155 44.6655 15.9962 44.7019 15.8656 44.7413C15.735 44.7808 15.636 44.8224 15.5764 44.8628C15.5569 44.8795 15.5098 44.8972 15.4445 44.9124C15.3792 44.9276 15.3005 44.9392 15.2243 44.9447C15.1333 44.9516 15.0518 44.9507 14.9966 44.9422C14.9414 44.9338 14.9169 44.9184 14.928 44.8994C14.9258 44.8635 14.9378 44.8262 14.964 44.7876C14.9488 44.7609 14.9335 44.7341 14.9937 44.6898C14.7218 44.706 14.4364 44.7384 14.1683 44.7835C13.9003 44.8287 13.66 44.8848 13.4735 44.9458C13.2674 45.009 13.0773 45.0752 12.8488 45.1491C12.8959 45.2318 12.8959 45.2318 12.4096 45.3781L9.83018 45.4494L9.30152 45.5463C8.8085 45.6307 8.69129 45.6249 8.38163 45.5813L8.17319 45.5402C7.73542 45.5967 7.23129 45.6616 6.95749 45.5559C6.86859 45.6248 6.81055 45.648 6.83075 45.6584C6.96143 45.7601 7.18854 45.8464 7.50308 45.9139C7.58327 45.9297 7.63971 45.9537 7.73315 45.9678C8.03446 46.0472 8.10434 46.17 7.92851 46.3109C7.84123 46.3732 7.71447 46.4371 7.5523 46.5004C7.78967 46.5882 8.1041 46.661 8.48718 46.7168C8.81229 46.7599 9.08001 46.8177 9.28268 46.8885C9.46463 46.9598 9.73713 47.0134 10.0845 47.0463C10.2607 47.0602 10.3893 47.0878 10.4575 47.1262C10.4778 47.2301 10.4312 47.3414 10.3187 47.4575C10.2975 47.4928 10.2373 47.531 10.1428 47.569C10.0483 47.607 9.92216 47.6438 9.77414 47.6765C9.77414 47.6765 9.70287 47.7014 9.66862 47.7162C9.64007 47.8421 9.74691 47.953 9.98197 48.0415C10.0205 48.0666 10.0993 48.0847 10.2099 48.0939C10.3206 48.1032 10.4588 48.1031 10.6098 48.0938C10.9287 48.0788 11.2267 48.0769 11.5352 48.0685C11.8676 48.0566 12.1604 48.066 12.3828 48.0957C12.6052 48.1254 12.749 48.1743 12.799 48.2373C12.8022 48.2551 12.812 48.2722 12.8281 48.2884C12.8375 48.2967 12.8426 48.3057 12.8433 48.3151L12.1349 48.5214L12.9363 48.6035C12.9834 48.6862 12.5987 48.7358 12.4059 48.7972L12.525 48.8315C12.6785 48.8509 12.8852 48.8138 13.0723 48.7923L13.258 48.7683L13.2802 48.8073C13.3958 48.8603 13.8175 48.8007 13.9821 48.8395C14.1466 48.8784 14.0292 48.9223 13.7826 48.9645C13.6113 48.9959 13.4273 49.0209 13.2444 49.0377C13.0616 49.0544 12.8848 49.0626 12.7271 49.0614C12.633 49.0572 12.5549 49.0477 12.4977 49.0335C12.165 48.9729 11.7975 48.9207 11.3979 48.8775C11.0915 48.8387 10.7078 48.8222 10.2739 48.8291C10.1465 48.8262 9.99294 48.8354 9.84009 48.8551C9.68725 48.8748 9.54496 48.9038 9.43815 48.9369L9.21342 48.9423C9.21342 48.9423 9.09047 48.9765 9.10788 48.982C9.19344 49.0832 9.09402 49.2068 8.82446 49.3346L9.05889 49.3462C9.3939 49.3343 9.18146 49.4113 9.23154 49.4493C9.46953 49.4421 9.77878 49.4101 9.89164 49.4582L10.0605 49.4547L9.9942 49.4633L9.91399 49.4475L9.59897 49.5194C9.74826 49.5315 9.85637 49.5463 9.98823 49.5528C10.0611 49.5585 10.119 49.5685 10.1587 49.5822C10.1983 49.596 10.2188 49.6132 10.2189 49.6328C10.2185 49.663 10.2578 49.6884 10.333 49.7066C10.4081 49.7248 10.5167 49.7352 10.6483 49.7367C10.8053 49.7374 10.8952 49.7702 10.9873 49.7818L10.5873 49.9797C10.5873 49.9797 10.7863 49.954 10.678 49.9889L10.6641 49.9645L10.4218 50.0141C10.2471 50.0575 10.125 50.068 10.0218 50.0369C9.91867 50.0058 9.9422 50.0471 9.8927 50.0352C9.91071 50.0669 10.023 50.089 10.1192 50.1079C10.2305 50.1228 10.356 50.1337 10.4938 50.1406C10.2455 50.2797 10.2336 50.2838 10.5963 50.3206C10.959 50.3574 10.8339 50.4127 11.1374 50.4206C11.4409 50.4285 11.0958 50.5226 10.8927 50.541C10.7421 50.553 10.5885 50.5718 10.4425 50.5961C10.2966 50.6203 10.1616 50.6494 10.047 50.6813L10.108 50.7884C10.1973 50.7795 10.2868 50.768 10.3733 50.7542C10.6673 50.6954 10.9348 50.64 11.1964 50.6742L11.0718 50.7555L11.9848 50.7084C11.9611 50.7693 11.822 50.8388 11.5967 50.902C11.6306 50.9368 11.6514 50.9734 11.659 51.0115C11.6743 51.0383 11.7644 51.0215 11.823 51.0243C12.0321 51.0288 12.2036 51.047 12.3226 51.0772C12.4416 51.1074 12.5044 51.1487 12.5054 51.1975C12.529 51.2389 12.2076 51.3247 12.0066 51.3219C11.5049 51.3302 10.9623 51.362 10.4082 51.4156C10.0704 51.4226 10.0228 51.3139 9.46698 51.3881C9.45594 51.4383 9.52713 51.479 9.66979 51.5039C9.81244 51.5289 10.0188 51.5368 10.2577 51.5264C10.1219 51.638 9.36952 51.6671 9.33624 51.7836C9.52358 51.7754 9.72393 51.756 9.91742 51.7274C10.1109 51.6988 10.2909 51.662 10.4395 51.6205C10.4715 51.6103 10.5118 51.6009 10.5566 51.5932C10.6013 51.5854 10.6491 51.5796 10.6954 51.5762C10.7418 51.5729 10.7853 51.5721 10.8218 51.5739C10.8583 51.5757 10.8867 51.5801 10.9044 51.5867C10.8003 51.6289 10.6856 51.6776 10.5549 51.7232C10.4242 51.7688 10.3927 51.7885 10.2985 51.798C9.59541 51.8887 9.26114 52.0519 8.6529 52.159C8.4937 52.1795 8.4739 52.2448 8.6121 52.2374C8.74357 52.23 8.86259 52.231 8.95584 52.2402C9.04911 52.2494 9.11292 52.2664 9.14013 52.2895C9.24216 52.3163 9.36921 52.3377 9.51808 52.353C8.89428 52.5205 8.1505 52.6685 7.35656 52.7831C7.2062 52.8058 7.04936 52.8196 6.90908 52.8225C6.46588 52.8227 5.9956 52.836 5.50768 52.8622C5.33463 52.8693 5.17475 52.8686 5.03668 52.8602C4.58387 52.8402 4.22429 52.8839 3.8958 53.0072L3.35209 53.2027C3.3701 53.2343 3.46135 53.2696 3.53164 53.318L3.10692 53.4223L-0.134151 53.182L-0.784781 53.4147L-1.71774 53.4018C-1.78925 53.4085 -1.86111 53.4177 -1.92996 53.4291C-2.11865 53.4978 -2.26621 53.5639 -2.47094 53.6294C-2.67568 53.695 -3.04134 53.703 -3.29637 53.7802C-3.55139 53.8575 -3.80681 53.8591 -4.12242 53.905C-4.15211 53.9648 -4.12145 54.0186 -4.03236 54.0631C-4.00327 54.1142 -3.8429 54.1458 -3.81519 54.1944C-3.81824 54.2436 -3.75866 54.2854 -3.6418 54.3159C-3.52495 54.3465 -3.35453 54.3648 -3.14601 54.3694C-2.56209 54.4741 -1.85793 54.5486 -1.05485 54.5908C-0.984313 54.5939 -0.925816 54.6009 -0.883004 54.6116C-0.840207 54.6222 -0.814004 54.6363 -0.805997 54.6527C-0.807096 54.7005 -0.753555 54.7417 -0.649254 54.7735C-0.544953 54.8052 -0.392511 54.8266 -0.203132 54.8362C-0.152707 54.8381 -0.114643 54.8441 -0.0936768 54.8534C-0.0218474 54.8594 0.0305103 54.8709 0.0582698 54.8868C0.0860292 54.9027 0.0882658 54.9224 0.0648165 54.9441C0.0413668 54.9658 -0.00699814 54.9886 -0.0756233 55.0105C-0.144248 55.0324 -0.230825 55.0525 -0.326958 55.0689C-0.466372 55.0954 -0.608787 55.1207 -0.753628 55.1448C-0.745315 55.1594 -0.601585 55.1618 -0.622572 55.1749C-0.679319 55.2169 -0.692451 55.2562 -0.660975 55.2898C-0.629499 55.3234 -0.554266 55.3503 -0.441229 55.3683L-1.21581 55.7084C-1.68598 55.7556 -2.1472 55.8354 -2.51191 55.933C-2.5124 55.9489 -2.49141 55.9623 -2.45104 55.9718C-2.41066 55.9813 -2.35234 55.9865 -2.28187 55.9869C-2.0928 55.9939 -1.9142 56.0074 -1.71045 56.0151C-1.58593 56.0208 -1.4823 56.0335 -1.40559 56.0523C-1.32888 56.0711 -1.28063 56.0957 -1.26363 56.1246L-1.71843 56.2512C-1.57272 56.282 -1.4646 56.2968 -1.36839 56.3157C-1.42291 56.3555 -1.51669 56.3966 -1.64245 56.4359C-1.76822 56.4752 -1.9226 56.5117 -2.09368 56.5424C-2.13955 56.5487 -2.18633 56.5534 -2.23127 56.556C-2.27624 56.5587 -2.31847 56.5593 -2.35543 56.5579C-2.70766 56.5145 -3.11967 56.5911 -3.51983 56.6636C-3.91998 56.736 -4.1372 56.7797 -4.43263 56.8361L-4.99788 56.8436C-5.14094 56.8703 -5.2686 56.9017 -5.37066 56.9353C-5.47271 56.9688 -5.54628 57.0036 -5.58555 57.0369C-5.55507 57.0904 -5.28698 57.0611 -5.1272 57.0666C-4.74814 57.0999 -4.24976 57.0928 -3.71472 57.0465C-3.58206 57.0294 -3.44604 57.0432 -3.31696 57.0448C-3.03849 57.0515 -2.77086 57.0623 -2.51531 57.0773C-2.34702 57.0912 -2.18975 57.1085 -2.0445 57.1289C-2.00571 57.197 -2.61652 57.2497 -2.26985 57.2833C-2.38924 57.2987 -2.43397 57.3201 -2.49534 57.3124C-2.8886 57.3566 -3.27607 57.3785 -3.61281 57.3755C-4.25905 57.3661 -4.99285 57.3971 -5.75412 57.4661C-6.57585 57.5375 -7.36409 57.5675 -8.05381 57.5536C-8.3165 57.5527 -8.61014 57.5674 -8.9123 57.5963C-9.26916 57.6364 -9.62352 57.6616 -9.95238 57.6703C-10.0613 57.6706 -10.1826 57.6774 -10.3065 57.6902C-10.4303 57.703 -10.5532 57.7214 -10.6652 57.7439C-10.6555 57.7609 -10.5488 57.7733 -10.5725 57.7816C-10.9129 57.909 -11.0509 58.0417 -11.5748 58.1719C-11.933 58.2181 -12.3442 58.2711 -12.5784 58.2099C-12.8127 58.1487 -12.7287 58.0961 -12.2626 57.9394C-12.3638 57.9371 -12.4856 57.9444 -12.6068 57.9601C-12.728 57.9757 -12.841 57.9986 -12.9259 58.0249L-13.329 58.1421L-13.6923 58.2542C-13.6605 58.3102 -13.6355 58.354 -13.6092 58.4002C-13.5676 58.4493 -13.6133 58.5091 -13.7397 58.5711C-13.816 58.605 -13.8824 58.6389 -13.9383 58.6725C-14.1655 58.8068 -14.2312 58.9337 -14.1283 59.0391C-13.931 59.1906 -13.6563 59.3299 -13.3073 59.4556C-12.9386 59.5778 -12.7369 59.732 -12.4332 59.8652C-12.2783 59.9259 -12.0902 59.9803 -11.8708 60.0278C-11.4546 60.1335 -10.9986 60.234 -10.5811 60.3421C-10.1636 60.4502 -9.69211 60.5279 -9.22842 60.617C-8.53801 60.7227 -7.79175 60.814 -6.99376 60.8904C-6.49997 60.9573 -5.99292 61.0226 -5.53617 61.0995C-4.99671 61.1862 -4.36296 61.2485 -3.65072 61.2848C-3.02165 61.3282 -2.4596 61.3924 -1.97534 61.4762C-1.92455 61.4853 -1.88447 61.4968 -1.85619 61.5105C-1.769 61.596 -1.52464 61.6562 -1.16045 61.682C-1.18259 61.707 -1.21088 61.7324 -1.2452 61.7582C-1.29574 61.7889 -1.30628 61.8176 -1.2754 61.8406C-1.24452 61.8637 -1.17367 61.8799 -1.07201 61.8874C-0.780702 61.9085 -0.538576 61.9445 -0.356468 61.9936C-0.289572 62.0059 -0.248093 62.0239 -0.235545 62.0459C-0.222996 62.068 -0.239752 62.0934 -0.284421 62.1201C-0.323967 62.1476 -0.326884 62.1729 -0.292746 62.1927C-0.258624 62.2125 -0.189022 62.226 -0.0929857 62.2313C0.153604 62.2573 0.417619 62.2782 0.697392 62.2939C1.29273 62.3286 1.98516 62.3281 2.73292 62.2927C2.81253 62.2824 2.8927 62.2982 2.98556 62.2862C3.51435 62.2465 4.00546 62.2404 4.39942 62.2685C4.86133 62.2795 5.34424 62.2773 5.8313 62.2825C6.53498 62.279 7.1841 62.2999 7.76054 62.3446C8.41947 62.3014 8.78971 62.3764 9.34586 62.3779C9.85934 62.3856 10.346 62.4041 10.8013 62.4332C11.5352 62.4717 12.2664 62.5055 12.9899 62.5506C13.6686 62.5722 14.2934 62.6133 14.854 62.6734C15.0688 62.7005 15.4576 62.6582 15.6039 62.7151C15.7502 62.772 16.0454 62.7653 16.284 62.7842L17.0368 62.8308C17.1662 62.8419 17.3086 62.8489 17.4616 62.8517C18.1615 62.8555 18.6462 62.9315 19.2958 62.947L19.3622 62.9384C20.5156 63.0513 21.8355 63.1133 23.2832 63.1225C24.1288 63.1571 25.0534 63.1555 25.9507 63.1809C26.1647 63.2316 26.6702 63.1691 26.9387 63.2154C27.2071 63.2618 27.6455 63.2314 27.9916 63.239C28.3377 63.2466 28.676 63.2657 29.0459 63.265C29.3671 63.2653 29.6383 63.286 29.8349 63.3253C30.2835 63.3902 30.8305 63.4284 31.4512 63.4382C32.2725 63.455 33.049 63.4934 33.8844 63.4849C33.8724 63.5323 33.9237 63.5726 34.0328 63.6016C34.142 63.6307 34.3051 63.6475 34.5055 63.6504C35.3986 63.6684 36.2086 63.7155 37.1136 63.7294L37.3557 63.7296L40.0625 63.7567C40.7917 63.762 41.4943 63.7707 42.2382 63.7766C42.5168 63.7407 42.5235 63.8025 42.7161 63.7908C42.77 63.7603 42.8336 63.7469 42.9284 63.7634L42.9492 63.7999L46.0382 63.8483C47.2477 63.8837 48.5199 63.8943 49.844 63.8801C50.1582 63.8837 50.4514 63.8958 50.719 63.9162C50.967 63.9236 51.2256 63.9269 51.4935 63.926C51.8556 63.9168 52.2094 63.9122 52.5535 63.9121C53.4586 63.9261 54.4083 63.9185 55.3993 63.9083C56.3902 63.8981 57.141 63.9163 58.0231 63.9149C58.6204 63.9136 59.215 63.9075 59.8333 63.8931C60.1285 63.8864 60.4922 63.8499 60.7979 63.8366C61.1036 63.8233 61.2034 63.8235 61.2438 63.8445C61.3769 63.903 61.7113 63.8652 61.9786 63.8594C62.4999 63.8497 62.5739 63.8297 62.7155 63.6783L62.0758 63.6301C61.9191 63.6146 61.7219 63.6119 61.5033 63.6222C61.2847 63.6325 61.0521 63.6556 60.8278 63.6891C60.7396 63.7035 60.6474 63.7149 60.5564 63.7226C60.4655 63.7303 60.3777 63.7341 60.298 63.7339C59.6526 63.7257 59.0162 63.7085 58.3959 63.6944L58.3052 63.6852L58.2996 63.5502C58.3816 63.5369 58.4667 63.5259 58.5516 63.5177L61.6628 63.43C62.3768 63.4085 63.1181 63.36 63.8188 63.3402C64.5195 63.3204 64.8971 63.3083 65.4408 63.2878C65.6702 63.2761 65.9041 63.2608 66.1408 63.242C66.1271 63.2289 66.1193 63.2151 66.1173 63.2006C66.1048 63.1787 66.0882 63.1495 66.1888 63.1261C66.2985 63.093 66.4452 63.0648 66.5995 63.047C66.7444 63.0353 66.8849 63.0287 67.0154 63.0274C67.6464 63.0161 68.3672 62.9447 69.0239 62.8285L69.2531 62.9061C70.2394 62.8625 71.2402 62.8197 72.2704 62.7783C72.4766 62.767 72.6931 62.7454 72.9036 62.715C73.1291 62.6859 73.3366 62.6252 73.574 62.592C73.8086 62.5681 74.0415 62.5495 74.2686 62.5364C74.2071 62.5165 74.126 62.5005 74.028 62.4891C73.9315 62.4851 73.8612 62.4726 73.8273 62.4535C73.7934 62.4344 73.7976 62.4096 73.8393 62.3828C73.9128 62.3368 73.9451 62.2935 73.7853 62.2879C73.6377 62.2774 73.532 62.2547 73.4809 62.2224C73.4297 62.1902 73.4351 62.1497 73.4965 62.1058C73.5234 62.0801 73.5423 62.055 73.5533 62.0306L73.6196 62.022C73.8384 61.9311 74.2754 61.8983 74.589 61.8239C74.737 61.8024 74.8903 61.79 75.0246 61.7887C75.3715 61.7727 75.7093 61.7657 76.068 61.7456C76.2394 61.7363 76.4186 61.7194 76.5951 61.6959C76.8472 61.6634 76.8737 61.66 77.02 61.5419C76.7928 61.544 76.6126 61.5263 76.51 61.492C76.4074 61.4576 76.3886 61.4086 76.457 61.3533C76.6445 61.2325 76.8425 61.1051 77.6907 61.0193C77.4141 61.0151 77.1479 61.0067 76.8932 60.9941C76.8191 60.9914 76.7636 60.9826 76.7342 60.9687C76.7048 60.9548 76.7028 60.9367 76.7285 60.9166C76.7542 60.8965 76.8065 60.8755 76.8782 60.8564C76.9499 60.8372 77.0377 60.8209 77.1298 60.8096C77.5775 60.7412 78.0446 60.6955 78.4786 60.6775C78.8443 60.6695 79.1743 60.674 79.6014 60.6738L80.1055 60.6088C80.0972 60.5942 80.1712 60.5742 80.1524 60.5662C80.0243 60.4913 79.883 60.4181 79.7375 60.3376C79.9699 60.2942 80.1712 60.2417 80.3185 60.1862C80.4657 60.1308 80.5528 60.0745 80.5699 60.024C80.5824 60.0088 80.5792 59.9949 80.5603 59.9833C80.5414 59.9718 80.5074 59.9628 80.4606 59.9571C80.3279 59.9474 80.2255 59.9287 80.1612 59.9026C80.097 59.8764 80.0726 59.8435 80.09 59.8064L80.482 59.6697C81.6623 59.5721 82.8215 59.5025 83.9378 59.4619L84.9456 59.4312C85.0672 59.3947 85.0296 59.3786 84.9151 59.3777C84.8007 59.3768 84.479 59.3869 84.2542 59.3924C84.0602 59.3996 83.8878 59.3949 83.7539 59.3787C83.62 59.3626 83.529 59.3356 83.4898 59.3003L83.8282 59.1444C83.8116 59.1152 83.788 59.0738 83.6045 59.0766C83.4791 59.0732 83.3867 59.0585 83.3422 59.0348C83.2977 59.0112 83.3038 58.98 83.3594 58.9462C83.3678 58.9218 83.3552 58.8996 83.322 58.8805C83.0505 58.879 82.7805 58.8798 82.5342 58.8724C82.4195 58.8699 82.3226 58.8609 82.2502 58.8459C82.1777 58.8309 82.1314 58.8103 82.1144 58.7855C82.1056 58.7613 82.1272 58.7337 82.1776 58.7049C82.2281 58.6762 82.3059 58.6471 82.4047 58.6201C82.7908 58.5866 83.1438 58.5862 83.3866 58.6189C83.4731 58.6445 83.6121 58.6585 83.7853 58.659C83.9584 58.6596 84.1576 58.6466 84.3565 58.6218C84.5843 58.5933 84.8116 58.5807 84.9976 58.5864C85.1836 58.5922 85.316 58.6157 85.371 58.653C85.6049 58.6385 85.8121 58.6275 86.0167 58.6115C86.2579 58.5915 86.486 58.5856 86.6762 58.5944C86.9805 58.6007 87.3084 58.597 87.6525 58.5835C88.6442 58.5497 89.6374 58.5183 90.5977 58.5042C90.8517 58.5002 91.0715 58.511 91.3227 58.5022C91.574 58.4933 91.7727 58.5173 92.0869 58.4689C92.1468 58.4614 92.207 58.4566 92.2629 58.4549C92.3187 58.4531 92.3686 58.4544 92.4087 58.4588C92.9605 58.497 93.6074 58.5024 94.3116 58.4747C95.276 58.4679 96.2761 58.4487 97.2419 58.4443C97.5251 58.4481 97.7928 58.4581 98.0421 58.4744C98.2319 58.4842 98.4306 58.4908 98.6373 58.4943C98.7957 58.4974 98.9472 58.4883 98.9205 58.5414C98.8937 58.5944 99.1311 58.5612 99.2679 58.5514C99.738 58.5257 100.218 58.4909 100.704 58.4473C101.182 58.4 101.651 58.3724 102.082 58.3663C102.393 58.3628 102.714 58.3763 103.114 58.3038C103.099 58.277 103.083 58.2503 102.996 58.2223C103.323 58.1454 103.695 58.0793 104.083 58.0293C104.47 57.9793 104.862 57.947 105.225 57.935L105.726 57.7895C105.849 57.7724 105.975 57.76 106.096 57.7529C106.217 57.7459 106.33 57.7444 106.429 57.7485C106.505 57.7506 106.598 57.7452 106.691 57.7333C106.783 57.7213 106.869 57.7037 106.933 57.6835C107.028 57.6579 107.144 57.6358 107.267 57.62C107.39 57.6042 107.513 57.5954 107.623 57.5946C107.967 57.5788 108.334 57.5423 108.687 57.4887C108.779 57.4574 108.836 57.4249 108.853 57.3955C108.869 57.366 108.843 57.3408 108.778 57.323C108.674 57.2914 108.615 57.2512 108.606 57.2049C108.597 57.1585 108.637 57.1068 108.724 57.0531C108.769 57.0201 108.784 56.9888 108.768 56.9612C108.752 56.9336 108.706 56.9103 108.633 56.8925C108.358 56.8104 108.431 56.7643 108.881 56.6281C108.954 56.6054 109.042 56.5841 109.139 56.5657C109.236 56.5473 109.341 56.5322 109.446 56.5212C109.694 56.499 109.937 56.4825 110.173 56.4719C110.306 56.4548 110.442 56.4687 110.595 56.462C111.359 56.4288 111.471 56.3752 111.718 56.2597L111.899 56.1764C112.233 56.1089 112.599 56.0529 112.97 56.0123C113.341 55.9717 113.707 55.9476 114.043 55.9417C114.177 55.9413 114.33 55.9298 114.48 55.9089C114.968 55.8452 115.463 55.801 115.93 55.7795C116.222 55.7673 116.536 55.7359 116.835 55.689C117.134 55.6421 117.406 55.5817 117.617 55.5151C117.806 55.4551 118.054 55.4012 118.326 55.3609C118.645 55.3199 118.674 55.2717 118.496 55.2346C118.318 55.1974 118.021 55.1496 117.756 55.1106C117.664 55.0973 117.607 55.0757 117.592 55.0482C117.576 55.0207 117.602 54.9884 117.668 54.9548C117.71 54.8974 117.717 54.843 117.689 54.7927C117.675 54.7719 117.685 54.7479 117.719 54.7226C117.754 54.6972 117.811 54.671 117.889 54.6456C117.966 54.6203 118.061 54.5965 118.168 54.5758C118.274 54.5551 118.389 54.538 118.506 54.5256C118.996 54.4623 119.474 54.4008 119.974 54.3545C120.184 54.3328 120.394 54.3057 120.598 54.2742C121.016 54.1961 121.463 54.1314 121.913 54.0837C122.127 54.0624 122.336 54.0252 122.495 53.98C122.997 53.8584 123.459 53.7305 123.873 53.5987C123.973 53.5578 124.103 53.5179 124.257 53.4816C124.41 53.4452 124.582 53.4131 124.763 53.3873C124.909 53.3685 125.028 53.327 125.141 53.2995C125.222 53.2357 125.231 53.1766 125.166 53.1279C125.101 53.0792 124.964 53.0424 124.768 53.021C124.583 52.9953 124.409 52.9654 124.249 52.9339C124.056 52.9084 123.826 52.893 123.568 52.8885C123.263 52.8748 123.037 52.8356 122.92 52.7761C123.756 52.6684 124.551 52.5137 125.283 52.5498L125.84 52.452C125.818 52.413 125.798 52.379 125.78 52.3474C125.648 52.2898 125.607 52.2172 125.66 52.1357C125.704 52.0963 125.7 52.0604 125.648 52.0317C125.597 52.003 125.5 51.9825 125.367 51.9723C124.581 51.8673 123.672 51.7964 122.935 51.6773C122.704 51.6549 122.434 51.6447 122.135 51.6472C121.846 51.6401 121.858 51.5863 122.191 51.5199C122.377 51.4852 122.567 51.452 122.761 51.4203C123.612 51.4151 123.959 51.5741 124.93 51.5298L125.381 51.3203C125.502 51.317 125.621 51.3158 125.734 51.3165L127.363 51.4016C127.499 51.4059 127.605 51.4204 127.668 51.4436C127.732 51.4668 127.751 51.4977 127.723 51.5328C127.712 51.5758 127.734 51.6152 127.789 51.6496C127.825 51.6737 127.802 51.7058 127.726 51.7387C127.555 51.813 127.775 51.8239 127.914 51.8426C127.949 51.8444 127.99 51.8442 128.034 51.842C128.078 51.8398 128.124 51.8356 128.17 51.8297C128.215 51.8238 128.26 51.8164 128.3 51.8077C128.34 51.799 128.376 51.7894 128.404 51.7793C128.649 51.7086 128.863 51.634 129.103 51.556C128.933 51.4814 129.133 51.3589 128.867 51.2913C128.837 51.2779 128.825 51.2614 128.832 51.243C128.839 51.2247 128.864 51.2047 128.906 51.1845C129.014 51.1322 129.066 51.0812 129.056 51.0367C129.045 50.9922 128.973 50.9557 128.847 50.9309L128.832 50.9042C129.165 50.8142 129.077 50.7342 129.207 50.6389L129.528 50.5767C130.326 50.4269 130.327 50.4294 131.014 50.4349C131.152 50.3779 130.976 50.3692 130.844 50.3627L129.74 50.2987C129.018 50.256 128.275 50.2264 127.468 50.2102C126.662 50.1941 125.762 50.1402 124.929 50.1014C124.886 50.0984 124.854 50.0925 124.835 50.0841C124.815 50.0757 124.808 50.0652 124.816 50.0533C124.849 50.0405 124.892 50.0281 124.943 50.0171C124.993 50.006 125.049 49.9967 125.107 49.9896C125.372 49.9554 125.645 49.9334 125.927 49.9048L126.454 49.8551L126.616 49.7898C126.722 49.7501 126.794 49.7017 126.935 49.6731C127.05 49.6518 127.176 49.6357 127.298 49.6263C127.421 49.617 127.535 49.6148 127.63 49.62C127.894 49.633 128.133 49.6519 128.385 49.669C128.636 49.6862 128.775 49.7048 128.994 49.7133C129.437 49.7171 129.866 49.7272 130.278 49.7436C130.625 49.7823 130.946 49.8281 131.239 49.8808C131.422 49.9017 131.593 49.9267 131.905 49.8995C132.053 49.8749 132.181 49.8425 132.265 49.8082C132.35 49.7738 132.386 49.7397 132.368 49.7119C132.351 49.6901 132.303 49.6728 132.23 49.6617C132.156 49.6507 132.059 49.6461 131.947 49.6486C131.634 49.6446 131.344 49.6311 131.084 49.6083C130.722 49.5672 130.281 49.5494 129.787 49.5562C129.619 49.5621 129.507 49.54 129.361 49.5327C129.214 49.5255 129.09 49.5076 128.927 49.5208C128.419 49.5549 128.176 49.5026 127.872 49.4687C127.769 49.4537 127.705 49.4294 127.688 49.3985C127.67 49.3676 127.699 49.3312 127.772 49.2935C127.912 49.2184 128.084 49.1429 128.284 49.0682C128.388 49.0314 128.52 48.9965 128.67 48.9662C128.821 48.9359 128.986 48.911 129.153 48.8935C129.253 48.8475 129.306 48.8023 129.308 48.7619C129.31 48.7216 129.261 48.6873 129.164 48.6623C128.918 48.6052 128.7 48.5472 128.148 48.5791C127.889 48.5912 127.645 48.5936 127.426 48.586C126.94 48.5756 126.38 48.5984 125.798 48.6522C125.647 48.666 125.499 48.6754 125.358 48.6802C124.352 48.7133 123.393 48.7298 122.431 48.7414C121.922 48.747 121.408 48.7453 120.876 48.7617C119.629 48.7971 118.494 48.7789 117.29 48.7904C116.66 48.7963 116.095 48.7725 115.627 48.7201C115.535 48.7026 115.457 48.6821 115.393 48.6589C115.703 48.5981 116.044 48.5499 116.383 48.519C116.722 48.4881 117.048 48.4756 117.328 48.4825C117.483 48.4995 117.682 48.5027 117.905 48.4915C118.127 48.4804 118.364 48.4554 118.588 48.4194L117.936 48.399C117.503 48.3895 117.06 48.3865 116.639 48.3728C115.971 48.3493 115.351 48.3116 114.659 48.2964C114.1 48.2824 113.6 48.2465 113.175 48.19C112.867 48.1488 112.516 48.1196 112.128 48.1029C111.853 48.094 111.853 48.094 111.677 48.0097C111.816 47.9551 111.997 47.9474 112.167 47.9464C113.188 47.9121 114.16 47.906 115.062 47.9285C115.517 47.9304 115.921 47.9536 116.254 47.9968C116.336 48.015 116.545 48.0064 116.712 48.0004C117.237 47.9914 117.739 47.9941 118.212 48.0082C118.865 48.0319 119.593 48.0263 120.367 47.9916C120.513 47.9492 120.344 47.9527 120.336 47.9381C119.737 47.9109 119.149 47.8795 118.538 47.8565C118.371 47.8482 118.193 47.8442 118.004 47.8443C117.302 47.8586 116.717 47.819 116.331 47.731C116.311 47.6969 116.057 47.7009 115.945 47.6788C115.89 47.6597 115.853 47.6372 115.836 47.6119C115.999 47.5491 116.184 47.5487 116.327 47.5487C116.74 47.5557 117.137 47.569 117.517 47.5885C117.87 47.6071 118.261 47.6121 118.679 47.6033C118.987 47.5949 119.251 47.6079 119.562 47.6043C119.731 47.5968 119.906 47.5848 120.083 47.5685C119.886 47.5247 119.618 47.4978 119.298 47.4896C119.055 47.4634 118.751 47.4555 118.712 47.3874C118.827 47.3387 118.955 47.3379 119.057 47.3429C119.271 47.3428 119.477 47.3458 119.675 47.3521C120.094 47.366 120.549 47.3662 121.028 47.3527C121.28 47.3477 121.52 47.3492 121.743 47.3572C122.247 47.3679 122.731 47.3918 123.192 47.4028C124.139 47.414 125.002 47.4542 125.911 47.4755C126.113 47.4807 126.295 47.4991 126.561 47.4674C126.828 47.4356 126.84 47.4315 126.871 47.4117C126.946 47.3788 126.969 47.3469 126.934 47.3226C126.882 47.3 126.779 47.2873 126.644 47.287C125.831 47.2509 125.06 47.2002 124.336 47.1353C124.017 47.1223 123.738 47.0957 123.508 47.0566C123.325 47.0296 123.109 47.0117 122.865 47.0036C122.511 46.9841 122.142 46.9698 121.759 46.9608C121.581 46.9559 121.429 46.9415 121.313 46.9183C121.197 46.8951 121.119 46.8637 121.084 46.8258L121.553 46.7C121.627 46.6941 121.7 46.689 121.773 46.6848L125.669 46.7754L126.055 46.7779C126.478 46.7704 126.581 46.7518 126.982 46.6061C126.067 46.5718 125.347 46.4719 124.895 46.3163C125.003 46.2995 125.115 46.2852 125.226 46.2735C125.958 46.2367 126.65 46.2269 127.275 46.2446C127.646 46.2463 128.028 46.2415 128.411 46.2392C128.299 46.1674 127.869 46.1888 127.59 46.1726C126.921 46.1473 126.33 46.095 125.835 46.0175C125.665 45.9872 125.451 45.9679 125.205 45.9603C124.958 45.9577 124.752 45.9394 124.604 45.907C124.457 45.8746 124.372 45.829 124.358 45.7743C124.335 45.7248 124.285 45.6787 124.209 45.6369C124.344 45.5775 124.558 45.5206 124.811 45.477C125.064 45.4333 125.338 45.4058 125.583 45.3997C126.106 45.3752 126.648 45.3352 127.196 45.2806C127.468 45.2531 127.736 45.2373 127.981 45.2342C128.197 45.2319 128.442 45.212 128.68 45.1776C128.917 45.1432 129.134 45.0962 129.296 45.0438C129.516 44.9789 129.721 44.9134 129.925 44.8478C130.13 44.7822 130.368 44.6994 130.607 44.619C130.817 44.6064 131.022 44.5983 131.219 44.5948C131.373 44.5978 131.551 44.589 131.734 44.5695C131.918 44.5501 132.098 44.5208 132.253 44.485C132.162 44.4498 132.059 44.4187 131.95 44.3779C132.099 44.3239 132.208 44.2689 132.268 44.2162C132.329 44.1635 132.34 44.1142 132.302 44.0713C132.28 44.0324 132.442 43.9671 132.499 43.9154C132.571 43.8709 132.584 43.8294 132.537 43.7963C132.491 43.7632 132.386 43.74 132.236 43.7299C132.051 43.7111 131.9 43.6829 131.79 43.6464C131.753 43.6369 131.735 43.6239 131.736 43.6086C131.737 43.5933 131.758 43.5761 131.796 43.5587C131.834 43.5413 131.889 43.5242 131.955 43.509C132.021 43.4937 132.097 43.4808 132.174 43.4714C132.413 43.4448 132.65 43.4276 132.872 43.4207C133.254 43.408 133.619 43.4001 133.969 43.3968C134.355 43.3919 134.785 43.3618 135.215 43.3094C135.6 43.2598 135.944 43.2153 136.133 43.1205C136.321 43.0258 136.621 43.0288 136.853 42.9598C136.723 42.8976 136.492 42.8544 136.183 42.8346C135.981 42.8275 135.813 42.8089 135.688 42.7799C135.564 42.751 135.487 42.7123 135.461 42.6665L136.163 42.4741C136.724 42.3836 137.034 42.4533 137.64 42.417L137.016 42.346C137.003 42.3389 136.999 42.3307 137.002 42.3216C137.063 42.178 137.159 42.1473 137.797 42.0677L138.155 42.0215L138.722 41.9667C138.813 41.9373 138.876 41.9066 138.904 41.8777C138.933 41.8488 138.926 41.8227 138.885 41.8021C138.802 41.7674 138.776 41.7231 138.811 41.6731C138.866 41.6401 138.871 41.6096 138.824 41.587C138.777 41.5644 138.682 41.5511 138.556 41.5494C138.454 41.5468 138.447 41.5086 138.392 41.4869C138.337 41.4571 138.244 41.4342 138.118 41.4198C137.991 41.4055 137.836 41.3999 137.661 41.4036C137.146 41.4065 136.662 41.3953 136.218 41.3702L136.298 41.3599C135.835 41.382 135.402 41.3847 135.021 41.3678C134.638 41.3466 134.148 41.3602 133.742 41.3473C133.411 41.3502 133.159 41.3208 133.04 41.2653C132.924 41.2123 132.504 41.2247 132.182 41.2348C131.992 41.2414 131.808 41.2442 131.632 41.2431C131.396 41.2311 131.101 41.2424 130.796 41.2752C130.704 41.2852 130.614 41.2906 130.534 41.2906C129.759 41.3044 128.985 41.3206 128.22 41.3278C128.043 41.3236 127.836 41.3331 127.623 41.3551C127.533 41.3646 127.446 41.3685 127.373 41.3664C126.165 41.3446 124.801 41.4002 123.616 41.3701C123.472 41.363 123.313 41.3615 123.144 41.3657C122.762 41.3834 122.431 41.372 122.2 41.3333C122.075 41.3127 121.915 41.3014 121.731 41.3C121.546 41.2986 121.34 41.3072 121.127 41.3253C120.772 41.3492 120.444 41.3518 120.177 41.3328C119.658 41.3153 119.111 41.308 118.542 41.3112C118.367 41.3143 118.214 41.3075 118.094 41.2913C117.973 41.2751 117.889 41.2499 117.848 41.2178C117.988 41.1633 118.14 41.1566 118.286 41.1614C118.848 41.149 119.409 41.1341 119.961 41.1282C120.455 41.1115 120.929 41.1064 121.376 41.113C121.598 41.1204 121.875 41.1035 122.147 41.0659C122.48 41.0183 122.823 40.9946 123.106 40.9997C123.316 41.001 123.538 40.9969 123.768 40.9875C123.916 40.9761 124.067 40.9566 124.206 40.931C124.261 40.9199 124.322 40.9106 124.383 40.9036C124.444 40.8966 124.505 40.8921 124.561 40.8905C124.618 40.8888 124.669 40.89 124.712 40.894C124.754 40.8979 124.787 40.9046 124.808 40.9135C125.022 40.9878 125.498 40.9499 125.907 40.9417C126.519 40.8158 126.974 40.8903 127.546 40.8192C127.591 40.8145 127.635 40.8116 127.677 40.8108C127.718 40.81 127.755 40.8112 127.785 40.8144C128.892 40.8572 130.181 40.8216 131.343 40.8364C131.471 40.8385 131.62 40.8311 131.772 40.815C132.768 40.7082 133.726 40.6779 134.458 40.73C134.547 40.7347 134.648 40.7349 134.757 40.7306C135.258 40.6881 135.736 40.6712 136.153 40.6812C136.806 40.678 137.434 40.6806 138.098 40.6708C138.556 40.6568 138.957 40.6718 139.262 40.714C139.272 40.7311 139.475 40.7127 139.63 40.7109C139.72 40.6681 139.797 40.6293 139.89 40.5913C139.972 40.5443 140.096 40.4967 140.252 40.4518C140.408 40.4069 140.593 40.3657 140.795 40.331C141.14 40.2865 141.175 40.222 140.933 40.1983C140.311 40.1197 139.529 40.0876 138.644 40.1042C137.904 40.1055 137.151 40.1086 136.401 40.1165C135.964 40.1233 135.502 40.1383 135.077 40.141C134.933 40.1467 134.785 40.1553 134.636 40.1665C134.452 40.1827 134.273 40.1915 134.109 40.1925C133.584 40.1789 132.997 40.1908 132.378 40.2277C132.151 40.2357 131.933 40.2384 131.727 40.2358C131.241 40.2258 130.714 40.2331 130.159 40.2577C129.815 40.2715 129.481 40.2788 129.161 40.2793C129.048 40.2809 128.955 40.2692 128.847 40.278C127.888 40.3702 127.209 40.3036 126.347 40.3391C125.927 40.349 125.527 40.349 125.151 40.3392C124.416 40.3397 123.662 40.3498 122.89 40.3695C121.869 40.4018 120.922 40.3906 119.947 40.404C119.755 40.4068 119.569 40.4063 119.391 40.4025C118.526 40.3777 117.586 40.3829 116.595 40.4182C116.37 40.4233 116.168 40.4171 116.001 40.3999C115.835 40.3827 115.707 40.355 115.627 40.3184C115.593 40.2933 115.615 40.2607 115.689 40.2269C115.811 40.1837 115.949 40.1414 116.101 40.1006L121.619 39.9639C121.851 39.9567 122.077 39.9529 122.296 39.9524C122.941 39.9512 123.605 39.9405 124.286 39.9205C124.958 39.9017 125.601 39.905 126.253 39.8994C126.445 39.8975 126.642 39.893 126.843 39.8859C128.204 39.8302 129.531 39.7961 130.815 39.784C131.355 39.7823 131.939 39.7567 132.489 39.7484C133.04 39.7401 133.793 39.7371 134.446 39.7338L136.468 39.7343C136.866 39.7327 137.253 39.7376 137.639 39.7401C138.108 39.5622 138.269 39.5205 138.894 39.4426C139.108 39.4138 139.325 39.3967 139.521 39.3931C140.141 39.4072 140.919 39.3487 141.508 39.3564C141.862 39.3526 142.164 39.3724 142.38 39.4137C142.568 39.4461 142.783 39.4718 143.022 39.4903C143.676 39.3381 143.733 39.2393 143.242 39.2008C143.108 39.1919 142.925 39.1946 142.829 39.1757C142.773 39.1642 142.698 39.1576 142.608 39.1564C142.519 39.1553 142.417 39.1596 142.312 39.1691C141.98 39.194 141.67 39.1999 141.411 39.1861C141.167 39.1679 140.868 39.1686 140.543 39.1882C140.304 39.219 140.095 39.1755 139.888 39.163C139.682 39.1504 139.512 39.1279 139.19 39.1616C139.13 39.1683 139.072 39.1724 139.018 39.1734C138.964 39.1744 138.917 39.1724 138.88 39.1676C138.533 39.1459 138.12 39.1481 137.673 39.1743C136.988 39.1999 136.345 39.2009 135.767 39.1771C135.42 39.1563 135.125 39.1194 134.893 39.0678C134.829 39.0505 134.735 39.0402 134.619 39.0377C134.037 39.0485 133.406 39.089 132.765 39.1566C132.523 39.1838 132.282 39.2052 132.046 39.2205C131.562 39.2545 131.093 39.2736 130.655 39.2772C130.017 39.2777 129.353 39.2908 128.669 39.3163C128.247 39.3305 127.84 39.3358 127.454 39.332C127.056 39.3302 126.632 39.341 126.19 39.3642C125.751 39.3831 125.364 39.3722 125.076 39.3329C124.981 39.3117 124.905 39.2865 124.848 39.2578C125.491 39.1644 126.156 39.117 126.709 39.125C126.919 39.1188 127.094 39.125 127.315 39.0887L127.322 39.1008C127.366 39.1087 127.432 39.1106 127.509 39.1061C127.585 39.1015 127.665 39.091 127.735 39.0763C127.709 39.0301 127.684 38.9863 127.666 38.9547C127.244 38.9602 126.835 38.9598 126.44 38.9533C126.108 38.944 125.656 39.0257 125.368 38.9949C124.806 39.0334 124.448 38.9803 123.944 38.9956C123.44 39.0109 122.885 39.0616 122.381 39.0769C121.942 39.0853 121.515 39.0872 121.103 39.0824C120.961 39.0757 120.797 39.0773 120.621 39.087C120.375 39.1053 120.145 39.1084 119.959 39.0959C119.773 39.0833 119.638 39.0557 119.57 39.0162C119.634 38.9792 119.721 38.9314 119.821 38.882C119.637 38.8413 119.358 38.8242 119.024 38.8332L118.553 38.8312C118.429 38.8323 118.333 38.8213 118.287 38.8006C118.241 38.7798 118.247 38.7508 118.305 38.7196C119.198 38.5627 119.231 38.5454 119.886 38.6464L120.757 38.5995L120.742 38.5987ZM108.969 39.0298L109.036 39.0212L108.969 39.0298ZM0.502139 55.7247L0.517379 55.7514L0.500753 55.7222L0.354835 55.741L0.345136 55.724L0.502139 55.7247ZM21.6888 43.994C21.895 43.9648 22.1032 43.9379 22.3123 43.9136C22.367 43.9098 22.4182 43.909 22.4615 43.9111C22.5049 43.9132 22.5391 43.9183 22.5613 43.9259C22.578 43.9551 22.4613 43.9753 22.3552 43.989C22.2214 44.0074 22.0847 44.0191 21.9592 44.0229C21.8337 44.0267 21.7239 44.0224 21.6412 44.0105L21.5213 43.9999L21.6888 43.994ZM127.924 51.11C127.788 51.1149 127.659 51.1157 127.54 51.1124C127.014 51.0888 126.511 51.0545 125.971 51.0326C125.291 50.977 124.509 50.9544 123.655 50.9655C123.321 50.971 123.039 50.953 122.842 50.9136C122.724 50.8925 122.572 50.8801 122.394 50.8773L120.136 50.8132C119.997 50.7998 119.876 50.7812 119.777 50.7576C119.976 50.732 120.109 50.7149 120.189 50.7046C120.354 50.7017 120.496 50.7095 120.6 50.7273C120.712 50.7573 120.902 50.7692 121.132 50.7606C121.364 50.7535 121.59 50.7496 121.809 50.7491C122.222 50.7506 122.639 50.757 123.054 50.7609C123.216 50.8445 123.693 50.8066 124.101 50.7984L124.416 50.8021C125.447 50.8455 126.432 50.9051 127.366 50.9808C127.546 50.9936 127.702 51.014 127.828 51.0414C127.875 51.0628 127.89 51.0894 127.872 51.1193L127.938 51.1107L127.924 51.11ZM81.8849 59.1076C81.6348 59.1133 81.3744 59.125 81.1074 59.1425C80.9017 59.1604 80.7011 59.1713 80.5134 59.1747C79.4619 59.1934 78.3661 59.2367 77.2408 59.304C77.0937 59.3142 76.9523 59.3192 76.822 59.3188L75.901 59.3017C75.6107 59.2921 75.6052 59.2824 75.8165 59.1533C75.9918 59.1282 76.1691 59.1054 76.3471 59.0849C76.4532 59.0712 76.6257 59.049 76.666 59.0699C76.9121 59.127 77.361 59.09 77.7386 59.0779C78.8315 59.0467 79.9587 59.0007 81.0621 58.9629C81.2954 58.9537 81.5213 58.949 81.7376 58.949C81.8719 58.947 81.9943 58.9507 82.0998 58.9597C82.1306 58.9607 82.1564 58.9634 82.1755 58.9677C82.1945 58.972 82.2065 58.9777 82.2104 58.9847C82.2143 58.9916 82.2102 58.9994 82.1983 59.0077C82.1864 59.016 82.167 59.0245 82.1413 59.0327C82.051 59.0615 81.9467 59.089 81.8319 59.1144L81.8849 59.1076ZM73.8787 40.372L72.802 40.3567C72.6729 40.355 72.5634 40.3378 72.4252 40.3452C71.688 40.3685 71.0054 40.362 70.4065 40.3259C70.2025 40.3112 69.964 40.3083 69.7038 40.3173C68.9074 40.3439 68.156 40.345 67.4701 40.3205C67.0268 40.3156 66.6119 40.2991 66.2316 40.2712C66.2024 40.2648 66.1841 40.256 66.1781 40.2455C66.1722 40.235 66.1786 40.223 66.197 40.2104C66.2018 40.2024 66.2148 40.1938 66.2352 40.1853C66.2556 40.1767 66.2828 40.1683 66.315 40.1606C66.3472 40.153 66.3836 40.1464 66.4217 40.1411C66.4598 40.1358 66.4988 40.1321 66.5358 40.1302C67.0162 40.0924 67.4723 40.0793 67.8667 40.0918C68.2324 40.1068 68.6262 40.1111 69.0418 40.1049C69.4395 40.1032 69.7094 40.152 70.2008 40.1148C70.4087 40.1025 70.5921 40.1066 70.72 40.1262C70.9774 40.1588 71.3366 40.1606 71.7339 40.1313C71.9715 40.1165 72.1987 40.1102 72.4067 40.1125C72.9112 40.1232 73.3933 40.1446 73.8607 40.1653C74.008 40.1701 74.1658 40.1708 74.3317 40.1673L76.6724 40.1268C77.2349 40.1143 77.796 40.0995 78.348 40.0936C78.7995 40.0809 79.2196 40.0849 79.5936 40.1054C79.9923 40.127 80.4272 40.1358 80.89 40.1316C81.6087 40.1434 82.3233 40.1479 83.1056 40.1463C83.6045 40.1473 84.1153 40.1441 84.6366 40.1344C84.9004 40.1219 85.1242 40.1321 85.2652 40.1631C85.3509 40.1886 85.5527 40.1678 85.7202 40.1619C86.6136 40.1048 87.4515 40.0913 88.1753 40.1222C88.2677 40.1273 88.3692 40.1291 88.4775 40.1277C89.1746 40.1266 89.8969 40.1197 90.5661 40.1196C90.7423 40.122 90.9081 40.1286 91.0615 40.1394C91.045 40.1568 90.9982 40.1758 90.9307 40.1923C90.8632 40.2087 90.7802 40.2215 90.6989 40.2279C90.066 40.2767 89.4548 40.3025 88.8912 40.3042C87.953 40.298 86.9703 40.312 85.9532 40.346C85.164 40.3803 84.4444 40.3731 83.848 40.3249C83.3817 40.2889 82.7752 40.3024 82.1326 40.3632C81.8576 40.3922 81.5906 40.4038 81.3683 40.3964C81.1543 40.3867 80.9088 40.389 80.646 40.4033C80.0921 40.4304 79.5594 40.443 79.0583 40.4408C78.5685 40.4308 78.1115 40.4035 77.6084 40.3953C77.1053 40.387 76.3391 40.3917 75.7188 40.3777C75.0985 40.3636 74.4851 40.3617 73.8787 40.372ZM118.492 38.9488C118.435 39.024 118.234 39.0709 118.018 39.0909C117.272 39.18 116.534 39.2179 115.929 39.1983C115.602 39.1709 115.166 39.1814 114.707 39.2278C114.172 39.276 113.672 39.284 113.296 39.2504C113.203 39.2445 113.133 39.2321 113.09 39.2142C113.082 39.1996 113.066 39.1729 113.064 39.168C113.103 39.1557 113.152 39.1442 113.206 39.1346C113.259 39.1249 113.317 39.1173 113.374 39.1124L115.845 39.0263L116.276 39.0073C117.062 38.9577 117.812 38.9379 118.492 38.9488ZM113.631 40.1395C113.245 40.2624 113.244 40.2599 113.046 40.288C112.093 40.4047 111.141 40.4676 110.302 40.4694C110.115 40.4691 109.957 40.4572 109.841 40.4348C109.781 40.4318 109.743 40.4222 109.734 40.4081C109.726 40.3939 109.749 40.3764 109.798 40.3594L110.104 40.2729C110.661 40.2354 111.21 40.2056 111.748 40.1837C112.374 40.1579 112.929 40.1569 113.578 40.1464L113.631 40.1395ZM81.9312 58.5636C81.5718 58.7327 81.5704 58.7302 80.9687 58.7739C80.5494 58.8048 80.1427 58.8229 79.7605 58.8277C79.2937 58.8331 78.8149 58.8425 78.3494 58.8503C78.2358 58.8557 78.1394 58.8512 78.0791 58.8378C78.0188 58.8243 77.9989 58.8028 78.0231 58.7775C78.0842 58.7499 78.1798 58.7233 78.2943 58.7019C78.4088 58.6805 78.5355 58.6656 78.6538 58.6596L78.9078 58.6556C79.2163 58.6472 79.5366 58.6346 79.8346 58.6327C80.028 58.6398 80.252 58.6343 80.4891 58.6169C80.7262 58.5995 80.97 58.5705 81.2014 58.5323L81.9312 58.5636ZM111.712 39.1699C111.616 39.1992 111.507 39.2272 111.389 39.2533C110.932 39.3255 110.447 39.3665 110.031 39.3683C109.834 39.3728 109.654 39.3568 109.454 39.38C109.094 39.411 108.746 39.4276 108.428 39.4287C108.428 39.4287 108.338 39.4219 108.309 39.4205L108.248 39.3134C108.399 39.2886 108.556 39.2684 108.712 39.2536C109.237 39.2251 109.753 39.2056 110.267 39.1837C110.782 39.1618 110.961 39.1517 111.298 39.1423C111.448 39.1475 111.586 39.1567 111.712 39.1699ZM123.078 52.4789L122.392 52.698C122.169 52.717 121.962 52.7205 121.8 52.7078C121.639 52.6951 121.532 52.6671 121.497 52.6278C121.441 52.6095 121.435 52.5823 121.482 52.5519C121.528 52.5216 121.623 52.4905 121.746 52.4651C121.865 52.4351 122.001 52.4081 122.145 52.3859C122.289 52.3638 122.439 52.3468 122.584 52.3362L123.078 52.4789ZM117.36 51.3879C117.809 51.3507 118.238 51.3355 118.616 51.3435C118.853 51.3652 119.176 51.3583 119.516 51.3241C120.135 51.2559 120.732 51.237 121.181 51.2714C121.181 51.2714 121.197 51.3006 121.273 51.3091C121.349 51.3176 121.048 51.3382 120.981 51.3467C120.495 51.3676 120.006 51.3837 119.583 51.3912C119.32 51.3909 119.042 51.3978 118.754 51.4118C118.358 51.4334 117.982 51.4404 117.641 51.4325C117.641 51.4325 117.509 51.426 117.361 51.3903L117.36 51.3879ZM69.3808 39.975C69.5954 39.9337 69.8281 39.9002 70.0614 39.8769C70.2947 39.8536 70.5227 39.8412 70.7281 39.8405C70.8855 39.8383 71.0128 39.8492 71.0899 39.8715C71.167 39.8937 71.1896 39.926 71.154 39.9632C70.9948 39.9837 70.7826 40.0111 70.6632 40.0265C70.2494 40.0249 69.8963 40.0052 69.3808 39.975ZM29.2122 43.4525C29.3843 43.4193 29.574 43.3939 29.7595 43.3792C29.945 43.3645 30.1189 43.3612 30.2613 43.3695C30.3346 43.3731 30.2849 43.4109 30.2973 43.4328C30.3054 43.4377 30.3054 43.4439 30.297 43.4506C30.2887 43.4574 30.2725 43.4644 30.25 43.4711C30.2276 43.4777 30.1998 43.4837 30.1695 43.4883C30.1393 43.493 30.1076 43.4962 30.078 43.4976C29.8911 43.5119 29.7148 43.5162 29.5647 43.51C29.4146 43.5038 29.2954 43.4874 29.2177 43.4622L29.2122 43.4525ZM26.5208 43.9274C26.5474 43.9078 26.6041 43.8874 26.6804 43.8699C26.7568 43.8523 26.8476 43.8389 26.9364 43.832C27.0932 43.8311 27.2357 43.8366 27.3585 43.8481C27.4917 43.8571 27.3959 43.9138 27.2157 43.9475C27.1394 43.961 27.0579 43.9716 26.9776 43.9783C26.8973 43.985 26.8205 43.9878 26.7533 43.9863C26.6861 43.9848 26.6304 43.9791 26.5905 43.9698C26.5506 43.9604 26.5277 43.9476 26.5236 43.9323L26.5208 43.9274ZM104.725 39.3784C105.127 39.3083 105.436 39.326 105.776 39.2978C106.116 39.2697 106.199 39.2667 106.154 39.3117C106.108 39.3568 105.875 39.3477 105.729 39.3665C105.532 39.3914 105.334 39.4058 105.157 39.4079C104.979 39.41 104.83 39.3998 104.725 39.3784ZM21.0529 51.2292C21.2656 51.2135 21.4739 51.2024 21.6748 51.1961C21.7012 51.2026 21.7178 51.2111 21.7235 51.2211C21.7292 51.2312 21.7239 51.2425 21.708 51.2545C21.708 51.2545 21.5718 51.2903 21.4922 51.3006C21.199 51.3358 21.1846 51.2854 21.0529 51.2292ZM-9.00717 57.7548C-9.15112 57.8021 -9.21824 57.8342 -9.33347 57.8569C-9.38641 57.8648 -9.44114 57.8705 -9.49358 57.8737C-9.54603 57.8768 -9.59483 57.8773 -9.6364 57.8751C-9.68705 57.8614 -9.69892 57.8406 -9.66966 57.8167C-9.66966 57.8167 -9.52297 57.7743 -9.46714 57.7723C-9.30785 57.7623 -9.15346 57.7564 -9.00717 57.7548ZM111.56 38.9779C111.865 38.9386 112.157 38.901 112.368 38.9469C111.884 38.9963 111.884 38.9963 111.56 38.9779ZM106.618 39.4269C106.926 39.3428 107.107 39.3351 107.255 39.3448C107.286 39.3472 107.307 39.3527 107.314 39.3603C107.321 39.3678 107.314 39.3772 107.294 39.3869C107.274 39.3966 107.241 39.4061 107.202 39.414C107.163 39.4218 107.119 39.4277 107.076 39.4306C106.915 39.433 106.762 39.4317 106.618 39.4269ZM90.7614 39.4624C90.7545 39.4503 90.7462 39.4357 90.8258 39.4254C90.8466 39.4202 90.8711 39.4157 90.8967 39.4124C90.9223 39.4091 90.9482 39.4071 90.9717 39.4066C90.9717 39.4066 90.98 39.4212 90.9855 39.4309L90.7614 39.4624ZM79.7501 59.6596L79.9273 59.6707L79.8477 59.6809L79.6376 59.6871L79.7501 59.6596ZM17.3563 43.7376C17.4227 43.729 17.489 43.7205 17.4987 43.7375C17.5127 43.7401 17.5214 43.7439 17.524 43.7486C17.5267 43.7533 17.5232 43.7586 17.514 43.7643C17.514 43.7643 17.4211 43.7762 17.3813 43.7814L17.3563 43.7376ZM27.6864 43.8738C27.73 43.8728 27.7694 43.874 27.8022 43.8771L27.8105 43.8917L27.6778 43.9088L27.6864 43.8738ZM117.71 47.3521C117.761 47.3432 117.815 47.3362 117.869 47.3316L117.935 47.323C117.935 47.323 117.864 47.3479 117.824 47.353C117.785 47.3582 117.752 47.3518 117.71 47.3521Z" fill="#016A70"/>
</g>
<path d="M33.0273 4.39621C32.5944 4.5761 32.4328 4.93059 32.427 5.6819V6.09459H29.6046H26.7879L26.5974 6.21099C26.2049 6.45966 26.0491 6.80886 26.1472 7.22684C26.2107 7.50726 26.5224 7.81942 26.8225 7.8935C27.1284 7.97286 39.74 7.96757 40.0748 7.88821C40.5654 7.77181 40.9117 7.30092 40.8194 6.86177C40.7732 6.61839 40.5827 6.36443 40.3403 6.21628L40.144 6.09459H37.3274H34.5049V5.65545C34.5049 4.89885 34.3318 4.56023 33.8585 4.37505C33.5756 4.26923 33.3159 4.27452 33.0273 4.39621Z" fill="#016A70"/>
<path d="M22.9782 9.48609C22.7069 9.56016 22.4125 9.85116 22.3375 10.1157C22.2856 10.3009 22.3144 10.5866 22.476 11.7241C22.5799 12.4807 22.6838 13.1844 22.7011 13.2744L22.7358 13.449H23.7401C24.6809 13.449 24.7502 13.4437 24.7502 13.3537C24.7502 13.2532 24.5481 11.7718 24.4847 11.449L24.4558 11.2797H33.4657C38.418 11.2797 42.4699 11.2956 42.4699 11.3167C42.4699 11.3432 42.4064 11.7982 42.3256 12.3326C42.2448 12.867 42.1813 13.3326 42.1813 13.3749C42.1813 13.4331 42.366 13.449 43.1913 13.449C44.1899 13.449 44.2014 13.449 44.2245 13.3273C44.2418 13.2638 44.3457 12.5601 44.4612 11.7718C44.6343 10.5549 44.6574 10.2956 44.5997 10.1051C44.5247 9.83529 44.2245 9.56016 43.9244 9.4808C43.6473 9.41202 23.2437 9.41731 22.9782 9.48609Z" fill="#016A70"/>
<path d="M25.2119 30.6074C25.2119 30.7556 25.6159 33.4487 25.6563 33.5386C25.7314 33.7397 25.9219 33.9301 26.1412 34.0307C26.3605 34.1365 26.476 34.1365 33.5408 34.1259L40.721 34.11L40.9288 33.9619C41.0442 33.8825 41.1827 33.745 41.2289 33.6603C41.3039 33.5333 41.7195 30.9514 41.7195 30.6286C41.7195 30.5492 41.6329 30.5387 40.7152 30.5387C39.7224 30.5387 39.7109 30.5387 39.682 30.6551C39.6647 30.7238 39.607 31.1154 39.5493 31.5334L39.4454 32.2847L33.4715 32.2741L27.4918 32.2582L27.3648 31.4117C27.2956 30.9461 27.2378 30.5598 27.2378 30.5492C27.2321 30.544 26.7761 30.5387 26.222 30.5387C25.4139 30.5387 25.2119 30.5545 25.2119 30.6074Z" fill="#016A70"/>
<path d="M31.1725 13.7854C30.7025 13.977 30.52 14.1778 29.977 15.0903C29.6028 15.72 29.4888 15.939 29.5116 16.0212C29.5298 16.0987 29.9177 16.3771 30.9808 17.0752C32.2219 17.8874 32.4409 18.0106 32.5231 17.9741C32.5824 17.9467 32.8196 17.5543 33.1436 16.9429C33.4311 16.3999 33.6866 15.9618 33.7048 15.971C33.7413 15.9801 34.8775 18.1383 34.8729 18.1931C34.8729 18.2068 34.6357 18.3573 34.3482 18.5353C33.7687 18.8775 33.6546 18.9961 33.7368 19.1467C33.7642 19.2015 33.8326 19.2517 33.8874 19.2608C34.1794 19.3247 37.6335 19.6988 37.7065 19.676C37.7521 19.6623 37.8433 19.5346 37.9118 19.3885C38.943 17.2303 39.6229 15.7428 39.6229 15.6561C39.6229 15.5831 39.5864 15.5284 39.5134 15.4964C39.4175 15.4508 39.3308 15.4827 38.8244 15.7519C38.3635 15.9983 38.2358 16.0485 38.2038 15.9983C38.181 15.9618 37.9529 15.5694 37.6973 15.1223C37.3277 14.4789 37.1772 14.2553 36.9718 14.0637C36.5384 13.6622 36.6342 13.6758 33.8554 13.6758H31.4325L31.1725 13.7854ZM33.1208 14.7572C33.2851 15.0995 33.4174 15.4052 33.4174 15.4417C33.4174 15.501 32.4455 17.3124 32.377 17.3809C32.3497 17.4083 30.2097 16.044 30.0728 15.9162C30.0409 15.8843 30.6797 14.7572 30.8302 14.5884C31.1405 14.228 31.428 14.1367 32.2173 14.1321H32.8242L33.1208 14.7572ZM36.3057 14.2051C36.6707 14.3283 36.8441 14.5337 37.4099 15.5466C37.7019 16.0622 37.9802 16.5231 38.0304 16.5733C38.1171 16.6645 38.1217 16.6645 38.4913 16.4729C38.7012 16.3679 38.8746 16.2904 38.8837 16.2995C38.8974 16.3132 37.6198 19.0463 37.5285 19.1878C37.5011 19.2334 37.2228 19.2106 36.1642 19.0828C35.4296 18.9961 34.809 18.9231 34.7817 18.9231C34.6813 18.9231 34.7725 18.8273 35.0828 18.6174C35.2562 18.4942 35.4068 18.3665 35.4159 18.3254C35.425 18.2843 34.9642 17.3489 34.3984 16.2402C33.8326 15.136 33.3717 14.2097 33.3717 14.1823C33.3717 14.1458 33.7733 14.1321 34.7315 14.1321C35.8539 14.1321 36.1323 14.1458 36.3057 14.2051Z" fill="#016A70"/>
<path d="M29.8361 17.8148C29.7357 17.8239 28.8687 17.8832 27.906 17.9425C26.7379 18.0155 26.1356 18.0703 26.09 18.1068C26.0489 18.1387 26.0261 18.2209 26.0352 18.303C26.0489 18.4262 26.1173 18.481 26.6421 18.8232C26.9706 19.0331 27.2626 19.2201 27.2945 19.2384C27.3447 19.2658 27.2444 19.5076 26.8748 20.2833C26.6101 20.84 26.3683 21.4012 26.3409 21.5335C26.277 21.8301 26.3135 22.2636 26.4322 22.5556C26.5919 22.9526 28.7455 26.7443 28.9372 26.9587C29.1516 27.2006 29.5897 27.4333 29.9456 27.5017C30.0779 27.5245 30.4338 27.5474 30.7304 27.5474C31.5289 27.5474 31.4559 27.7572 31.4559 25.4941C31.4559 23.6826 31.4513 23.6187 31.3646 23.532C31.2779 23.4453 31.214 23.4408 30.3152 23.4408C29.7357 23.4408 29.357 23.4225 29.357 23.3952C29.357 23.313 30.557 21.205 30.6072 21.205C30.6346 21.205 30.8901 21.2962 31.1775 21.4103C31.6658 21.602 31.7068 21.6111 31.8072 21.5472C31.862 21.5061 31.9122 21.4331 31.9122 21.3829C31.9122 21.246 30.4155 17.9106 30.3243 17.8376C30.2513 17.7828 30.2011 17.7828 29.8361 17.8148ZM30.6619 19.5806C30.9722 20.2833 31.2232 20.8719 31.2186 20.8901C31.2095 20.913 31.0635 20.8673 30.8855 20.7898C30.4749 20.6164 30.3836 20.6209 30.2695 20.8035C30.2193 20.8856 29.722 21.7799 29.1608 22.7883C28.6041 23.8012 28.1341 24.6271 28.1204 24.6271C28.1067 24.6271 27.8147 24.1252 27.4725 23.5138C26.8018 22.3138 26.7333 22.1176 26.8063 21.6704C26.8246 21.5472 27.0618 20.9905 27.3721 20.3426C27.7326 19.5897 27.8968 19.2019 27.8786 19.1334C27.8649 19.0741 27.6915 18.9327 27.4314 18.7684C27.1987 18.6178 27.0345 18.4901 27.0618 18.481C27.1531 18.449 29.5349 18.2939 29.8269 18.303L30.0916 18.3076L30.6619 19.5806ZM30.9996 25.4941V27.0454H30.4384C29.9319 27.0454 29.8543 27.0363 29.649 26.9314C29.5212 26.8675 29.3661 26.758 29.2976 26.6895C29.1243 26.507 28.3942 25.2112 28.4124 25.1245C28.4216 25.0834 28.5813 24.8051 28.7592 24.4994L29.0878 23.9427H30.0414H30.9996V25.4941Z" fill="#016A70"/>
<path d="M38.0263 20.0409C36.7396 20.8258 36.4978 20.9855 36.4841 21.0813C36.475 21.1588 36.6347 21.5056 36.9723 22.1262C37.2506 22.6372 37.4879 23.0935 37.5062 23.1346C37.5335 23.2076 37.4423 23.2121 36.37 23.2121H35.2065L35.1882 22.619C35.1745 22.0942 35.1654 22.0212 35.0833 21.9619C35.0331 21.9208 34.9601 21.8935 34.9236 21.9026C34.8643 21.9117 32.4642 24.5947 32.2908 24.8411C32.2498 24.9049 32.2315 24.9871 32.2498 25.0464C32.2634 25.1057 32.8475 25.9088 33.5456 26.8396C34.8369 28.5644 34.9145 28.6465 35.0878 28.505C35.1335 28.464 35.1517 28.3362 35.1517 27.9986V27.5468H36.0871C37.0544 27.5468 37.3784 27.5058 37.6795 27.3552C38.0491 27.1681 38.2453 26.8943 39.094 25.3749C39.5458 24.5764 40.075 23.6456 40.2758 23.3079C40.4766 22.9749 40.6865 22.5916 40.7458 22.4593C40.8827 22.1627 40.9283 21.7155 40.8599 21.3915C40.8325 21.2592 40.5861 20.6889 40.3123 20.1276C39.8332 19.1512 39.8058 19.1056 39.6826 19.1101C39.6005 19.1101 39.0256 19.4341 38.0263 20.0409ZM39.9792 20.4562C40.1891 20.8988 40.3853 21.3687 40.4127 21.5056C40.4903 21.8752 40.4127 22.1627 40.0796 22.733L39.7967 23.2121L38.9298 23.203L38.0583 23.1893L37.5427 22.2311C37.2552 21.7018 37.0225 21.2501 37.0225 21.2273C37.0271 21.1862 39.5138 19.6531 39.5777 19.6531C39.5914 19.6531 39.7693 20.0136 39.9792 20.4562ZM34.7821 23.5954C34.8369 23.6593 35.065 23.6684 37.1639 23.6684C38.4415 23.6684 39.4864 23.6867 39.4864 23.7095C39.4864 23.7414 38.0993 26.2236 37.8803 26.5795C37.8301 26.6616 37.6932 26.794 37.5792 26.8761L37.3647 27.0221L36.1327 27.0358C34.951 27.0495 34.8962 27.054 34.8004 27.1453C34.7319 27.2092 34.6954 27.2959 34.6954 27.3963C34.6954 27.4784 34.6818 27.5468 34.6635 27.5423C34.6042 27.5377 32.8019 25.0829 32.8019 25.0099C32.8019 24.9734 33.2216 24.4623 33.7372 23.8692L34.6726 22.7923L34.6954 23.1574C34.7091 23.3627 34.7456 23.5498 34.7821 23.5954Z" fill="#016A70"/>
</svg>
